<svg xmlns="http://www.w3.org/2000/svg" xmlns:xlink="http://www.w3.org/1999/xlink" viewBox="0 0 16 16" version="1.1" fill="#fff">
<g id="surface1">
<path style=" " d="M 1.5 2 C 0.675781 2 0 2.675781 0 3.5 L 0 10.5 C 0 11.324219 0.675781 12 1.5 12 L 2.09375 12 C 2.300781 12.578125 2.851563 13 3.5 13 C 4.148438 13 4.699219 12.578125 4.90625 12 L 11.066406 12 C 11.273438 12.578125 11.824219 13 12.472656 13 C 13.121094 13 13.671875 12.578125 13.878906 12 L 14.5 12 C 15.320313 12 16 11.324219 16 10.5 L 16 8.804688 C 16 8.507813 15.910156 8.214844 15.746094 7.96875 L 14.1875 5.667969 C 13.90625 5.25 13.4375 5 12.9375 5 L 10 5 L 10 3.5 C 10 2.675781 9.324219 2 8.5 2 Z M 1.5 3 L 8.5 3 C 8.78125 3 9 3.21875 9 3.5 L 9 11 L 4.90625 11 C 4.699219 10.421875 4.148438 10 3.5 10 C 2.851563 10 2.300781 10.421875 2.09375 11 L 1.5 11 C 1.21875 11 1 10.78125 1 10.5 L 1 3.5 C 1 3.21875 1.21875 3 1.5 3 Z M 10 6 L 12.9375 6 C 13.105469 6 13.261719 6.085938 13.355469 6.222656 L 13.355469 6.226563 L 14.914063 8.527344 C 14.96875 8.609375 15 8.703125 15 8.804688 L 15 10.5 C 15 10.78125 14.78125 11 14.5 11 L 13.878906 11 C 13.671875 10.421875 13.121094 10 12.472656 10 C 11.824219 10 11.273438 10.421875 11.066406 11 L 10 11 Z M 3.5 11 C 3.78125 11 4 11.21875 4 11.5 C 4 11.78125 3.78125 12 3.5 12 C 3.21875 12 3 11.78125 3 11.5 C 3 11.21875 3.21875 11 3.5 11 Z M 12.472656 11 C 12.753906 11 12.972656 11.21875 12.972656 11.5 C 12.972656 11.78125 12.753906 12 12.472656 12 C 12.191406 12 11.972656 11.78125 11.972656 11.5 C 11.972656 11.21875 12.191406 11 12.472656 11 Z "></path>
</g>
</svg>