<svg version="1.1" xmlns="http://www.w3.org/2000/svg" xmlns:xlink="http://www.w3.org/1999/xlink" viewBox="0 0 252 252"><g transform="translate(-37.8,-37.8) scale(1.3,1.3)"><g fill="none" fill-rule="nonzero" stroke="none" stroke-width="1" stroke-linecap="butt" stroke-linejoin="miter" stroke-miterlimit="10" stroke-dasharray="" stroke-dashoffset="0" font-family="none" font-weight="none" font-size="none" text-anchor="none" style="mix-blend-mode: normal"><path d="M0,252v-252h252v252z" fill="none"></path><g><g id="surface1"><path d="M171.6709,43.5791l-7.3418,7.3418l24.6709,24.6709v24.1582c0,3.15821 2.0918,5.25 5.25,5.25h10.5c3.15821,0 5.25,-2.09179 5.25,-5.25v-13.6582c0,-2.625 -1.0459,-5.25 -3.1582,-7.3418z" fill="#42a5f5"></path><path d="M173.25,225.75h-126v-178.5c0,-11.5459 9.4541,-21 21,-21h84c11.5459,0 21,9.4541 21,21z" fill="#ffc107"></path><path d="M215.78321,141.75c-5.25,-9.4541 -11.03321,-18.9082 -11.03321,-36.75h-10.5c0,21 6.2959,32.03321 12.5918,42c4.7373,7.875 8.4082,15.2168 8.4082,26.25c0,5.78321 -4.71679,10.5 -10.5,10.5c-5.7832,0 -10.5,-4.71679 -10.5,-10.5v-26.25c0,-5.7832 -4.71679,-10.5 -10.5,-10.5h-10.5v10.5h10.5v26.25c0,11.5459 9.4541,21 21,21c11.5459,0 21,-9.4541 21,-21c0,-13.6582 -5.25,-22.5791 -9.96679,-31.5z" fill="#607d8b"></path><path d="M26.25,204.75h199.5v21h-199.5z" fill="#607d8b"></path><path d="M152.25,42h-84c-3.1582,0 -5.25,2.0918 -5.25,5.25v52.5c0,3.15821 2.0918,5.25 5.25,5.25h84c3.15821,0 5.25,-2.09179 5.25,-5.25v-52.5c0,-3.1582 -2.09179,-5.25 -5.25,-5.25z" fill="#b2ebf2"></path><path d="M152.25,42h-84c-3.1582,0 -5.25,2.0918 -5.25,5.25v52.5c0,3.15821 2.0918,5.25 5.25,5.25h84c3.15821,0 5.25,-2.09179 5.25,-5.25v-52.5c0,-3.1582 -2.09179,-5.25 -5.25,-5.25z" fill="#b2ebf2"></path><path d="M115.5,105l24.6709,-29.9209l-36.75,29.9209z" fill="#f44336"></path><path d="M73.5,72.4541l-7.34179,-7.3623c1.55859,-1.55859 2.625,-2.625 4.18359,-3.6709l6.8291,8.4082c-1.5791,0.5127 -2.625,1.57911 -3.6709,2.625zM147,72.4541c-1.0459,-1.04589 -2.09179,-2.1123 -3.6709,-3.1582l6.2959,-8.38769c1.5791,1.04589 3.15821,2.625 4.2041,3.67089zM89.25,61.9541l-4.2041,-9.4541c1.5791,-0.5332 3.6709,-1.5791 5.25,-2.09179l3.1582,9.96679c-1.5791,0.53321 -2.625,1.0459 -4.2041,1.5791zM130.7168,61.9541c-1.55859,-0.5332 -3.1377,-1.04589 -4.7168,-1.5791l3.15821,-9.96679c1.55859,0.51269 3.67089,1.04589 5.25,2.09179zM107.625,57.75l-0.5332,-10.5c2.1123,0 3.69141,0 5.7832,0l-0.5332,10.5c-1.55859,0 -3.1377,0 -4.7168,0z" fill="#455a64"></path><path d="M120.75,105h-21c0,-5.7832 4.7168,-10.5 10.5,-10.5c5.78321,0 10.5,4.7168 10.5,10.5z" fill="#455a64"></path></g></g></g></g></svg>