<svg version="1.1" xmlns="http://www.w3.org/2000/svg" xmlns:xlink="http://www.w3.org/1999/xlink" viewBox="0 0 252 252"><g transform="translate(-37.8,-37.8) scale(1.3,1.3)"><g fill="none" fill-rule="nonzero" stroke="none" stroke-width="1" stroke-linecap="butt" stroke-linejoin="miter" stroke-miterlimit="10" stroke-dasharray="" stroke-dashoffset="0" font-family="none" font-weight="none" font-size="none" text-anchor="none" style="mix-blend-mode: normal"><path d="M0,252v-252h252v252z" fill="none"></path><g><g id="surface1"><path d="M220.5,186.375c0,-18.84668 -42.30762,-34.125 -94.5,-34.125c-52.19238,0 -94.5,15.27832 -94.5,34.125c0,18.84668 42.30762,34.125 94.5,34.125c52.19238,0 94.5,-15.27832 94.5,-34.125z" fill="#90caf9"></path><path d="M126,31.5c-31.88965,0 -57.75,25.51172 -57.75,56.97071c0,31.45898 57.75,105.77929 57.75,105.77929c0,0 57.75,-74.32031 57.75,-105.77929c0,-31.45899 -25.86035,-56.97071 -57.75,-56.97071zM126,115.5c-14.49902,0 -26.25,-11.75098 -26.25,-26.25c0,-14.49902 11.75098,-26.25 26.25,-26.25c14.49902,0 26.25,11.75098 26.25,26.25c0,14.49902 -11.75098,26.25 -26.25,26.25z" fill="#ff3d00"></path></g></g></g></g></svg>