<svg version="1.1" xmlns="http://www.w3.org/2000/svg" xmlns:xlink="http://www.w3.org/1999/xlink" viewBox="0 0 252 252"><g transform=""><g fill="none" fill-rule="nonzero" stroke="none" stroke-width="1" stroke-linecap="butt" stroke-linejoin="miter" stroke-miterlimit="10" stroke-dasharray="" stroke-dashoffset="0" font-family="none" font-weight="none" font-size="none" text-anchor="none" style="mix-blend-mode: normal"><path d="M0,252v-252h252v252z" fill="none"></path><g id="Layer_1"><path d="M231,126c0,57.981 -47.019,105 -105,105c-57.981,0 -105,-47.019 -105,-105c0,-57.981 47.019,-105 105,-105c57.981,0 105,47.019 105,105z" fill="#3f51b5"></path><path d="M105,183.75h-15.75v-115.5h52.5c17.37225,0 31.5,14.12775 31.5,31.5c0,17.37225 -14.12775,31.5 -31.5,31.5h-36.75zM105,115.5h36.75c8.673,0 15.75,-7.077 15.75,-15.75c0,-8.673 -7.077,-15.75 -15.75,-15.75h-36.75z" fill="#ffffff"></path><path d="M78.75,147h52.5v15.75h-52.5z" fill="#ffffff"></path></g></g></g></svg>